<?xml version="1.0" encoding="UTF-8" standalone="no"?>
<svg
   viewBox="0 0 24.009007 71.885463"
   version="1.1"
   id="svg1"
   sodipodi:docname="asterisk.svg"
   inkscape:version="1.3.2 (091e20e, 2023-11-25, custom)"
   inkscape:export-filename="asterisk.png"
   inkscape:export-xdpi="256"
   inkscape:export-ydpi="256"
   width="20"
   height="60"
   xmlns:inkscape="http://www.inkscape.org/namespaces/inkscape"
   xmlns:sodipodi="http://sodipodi.sourceforge.net/DTD/sodipodi-0.dtd"
   xmlns="http://www.w3.org/2000/svg"
   xmlns:svg="http://www.w3.org/2000/svg">
  <defs
     id="defs1" />
  <sodipodi:namedview
     id="namedview1"
     pagecolor="#ffffff"
     bordercolor="#000000"
     borderopacity="0.25"
     inkscape:showpageshadow="2"
     inkscape:pageopacity="0.0"
     inkscape:pagecheckerboard="0"
     inkscape:deskcolor="#d1d1d1"
     inkscape:zoom="26.192414"
     inkscape:cx="11.950025"
     inkscape:cy="10.728297"
     inkscape:window-width="1920"
     inkscape:window-height="1166"
     inkscape:window-x="-11"
     inkscape:window-y="-11"
     inkscape:window-maximized="1"
     inkscape:current-layer="svg1" />
  <g
     id="g1"
     transform="matrix(1.1554946,0,0,1.1554946,-1.3072717,-1.19649)">
    <path
       fill="currentColor"
       d="m 12.001,1.75 c 0.496,0 0.913,0.373 0.969,0.866 0.306,2.705 1.126,4.66 2.44,6 1.31,1.333 3.223,2.17 5.95,2.412 a 0.976,0.976 0 0 1 -0.002,1.945 c -2.682,0.232 -4.637,1.067 -5.977,2.408 -1.34,1.34 -2.176,3.295 -2.408,5.977 a 0.976,0.976 0 0 1 -1.945,0.002 c -0.243,-2.727 -1.08,-4.64 -2.412,-5.95 -1.34,-1.314 -3.295,-2.134 -6,-2.44 A 0.976,0.976 0 0 1 2.614,11.03 C 5.364,10.713 7.279,9.893 8.586,8.586 9.893,7.279 10.713,5.365 11.03,2.614 A 0.976,0.976 0 0 1 12.001,1.75 Z"
       id="path1"
       style="fill:#f9c23c;fill-opacity:1" />
    <path
       fill="currentColor"
       d="m 19.260825,4.817001 c 0.35038,0.3510696 0.380943,0.9097143 0.07156,1.297612 -1.698442,2.1274295 -2.502937,4.08886 -2.523167,5.965503 -0.01811,1.868867 0.740832,3.814158 2.495928,5.915284 a 0.976,0.976 0 0 1 -1.378087,1.372554 c -2.058804,-1.734436 -4.030853,-2.528335 -5.926606,-2.529492 -1.895045,-0.0019 -3.8693573,0.787448 -5.9315691,2.517833 A 0.976,0.976 0 0 1 4.6934947,17.981033 C 6.452012,15.882654 7.2147708,13.93886 7.2010515,12.070669 7.184512,10.19399 6.3838756,8.2309811 4.6896207,6.1002156 A 0.976,0.976 0 0 1 6.0613432,4.7283624 c 2.1670038,1.7225224 4.1001788,2.4987055 5.9485548,2.5005224 1.848377,0.00182 3.782367,-0.7698561 5.953461,-2.48882 a 0.976,0.976 0 0 1 1.297466,0.076936 z"
       id="path1-3"
       style="fill:#f9c23c;fill-opacity:1" />
  </g>
</svg>
